<?xml version="1.0" encoding="UTF-8" standalone="no"?>
<!-- Created with Inkscape (http://www.inkscape.org/) -->

<svg
   xmlns:dc="http://purl.org/dc/elements/1.1/"
   xmlns:cc="http://creativecommons.org/ns#"
   xmlns:rdf="http://www.w3.org/1999/02/22-rdf-syntax-ns#"
   xmlns:svg="http://www.w3.org/2000/svg"
   xmlns="http://www.w3.org/2000/svg"
   xmlns:sodipodi="http://sodipodi.sourceforge.net/DTD/sodipodi-0.dtd"
   xmlns:inkscape="http://www.inkscape.org/namespaces/inkscape"
   width="48px"
   height="48px"
   id="svg4762"
   version="1.1"
   inkscape:version="0.48.5 r10040"
   sodipodi:docname="Documento nuevo 12">
  <title
     id="title4821">Not documented</title>
  <defs
     id="defs4764" />
  <sodipodi:namedview
     id="base"
     pagecolor="#ffffff"
     bordercolor="#666666"
     borderopacity="1.0"
     inkscape:pageopacity="0"
     inkscape:pageshadow="2"
     inkscape:zoom="7"
     inkscape:cx="-5"
     inkscape:cy="24"
     inkscape:current-layer="layer1"
     showgrid="true"
     inkscape:grid-bbox="true"
     inkscape:document-units="px"
     inkscape:window-width="1366"
     inkscape:window-height="702"
     inkscape:window-x="0"
     inkscape:window-y="27"
     inkscape:window-maximized="1" />
  <metadata
     id="metadata4767">
    <rdf:RDF>
      <cc:Work
         rdf:about="">
        <dc:format>image/svg+xml</dc:format>
        <dc:type
           rdf:resource="http://purl.org/dc/dcmitype/StillImage" />
        <cc:license
           rdf:resource="http://creativecommons.org/licenses/publicdomain/" />
        <dc:title>Not documented</dc:title>
        <dc:creator>
          <cc:Agent>
            <dc:title>Luis Alejandro Bernal Romero (Aztlek)</dc:title>
          </cc:Agent>
        </dc:creator>
        <dc:rights>
          <cc:Agent>
            <dc:title>public domain</dc:title>
          </cc:Agent>
        </dc:rights>
        <dc:subject>
          <rdf:Bag>
            <rdf:li>document</rdf:li>
            <rdf:li>not documented</rdf:li>
            <rdf:li>not</rdf:li>
            <rdf:li>abstract</rdf:li>
            <rdf:li>corner</rdf:li>
            <rdf:li>fold</rdf:li>
            <rdf:li>paper</rdf:li>
          </rdf:Bag>
        </dc:subject>
        <dc:description>I create this icon to symbolize when something is not documented.</dc:description>
      </cc:Work>
      <cc:License
         rdf:about="http://creativecommons.org/licenses/publicdomain/">
        <cc:permits
           rdf:resource="http://creativecommons.org/ns#Reproduction" />
        <cc:permits
           rdf:resource="http://creativecommons.org/ns#Distribution" />
        <cc:permits
           rdf:resource="http://creativecommons.org/ns#DerivativeWorks" />
      </cc:License>
    </rdf:RDF>
  </metadata>
  <g
     id="layer1"
     inkscape:label="Layer 1"
     inkscape:groupmode="layer">
    <g
       transform="matrix(1.8932595,0,0,1.8932595,-98.341811,-1916.2104)"
       id="g4749">
      <rect
         y="1012.9419"
         x="55.859608"
         height="23.714205"
         width="17.520126"
         id="rect4084"
         style="fill:#ffffff;fill-opacity:0.79497908;stroke:#ffffff;stroke-width:1.63889146;stroke-miterlimit:53.09999847;stroke-opacity:0.79607843;stroke-dasharray:none" />
      <path
         inkscape:connector-curvature="0"
         id="rect5498"
         style="fill:none;stroke:#000000;stroke-width:1.12511194"
         d="m 55.602848,1012.685 v 24.2279 h 18.012654 v -18.3317 l -11.234308,-5.8955 h -6.778515 z" />
      <path
         inkscape:connector-curvature="0"
         id="rect5500"
         style="fill:#c8b7b7"
         d="m 69.860573,1024.1766 3.223905,-4.3648 -11.222455,-6.2601 7.581655,10.1 0.416844,0.5249 z" />
      <g
         transform="matrix(0.64767997,0,0,0.64767997,19.491063,358.60718)"
         id="g4737">
        <path
           d="m 69.670727,1018.9932 c 7.183377,0 12.676548,5.4925 12.676548,12.6727 0,7.1802 -5.493171,12.6727 -12.676548,12.6727 -7.183378,0 -12.669947,-5.4925 -12.669947,-12.6727 0,-7.1802 5.486569,-12.6727 12.669947,-12.6727 z m -7.744581,7.1648 -0.264094,0.3989 -0.244288,0.4066 -0.224479,0.4219 -0.204674,0.4296 -0.184867,0.4373 -0.158456,0.4449 -0.138648,0.4602 -0.112247,0.4603 -0.09244,0.468 -0.06602,0.4756 -0.04621,0.4679 -0.01981,0.4756 0.0066,0.4833 0.02642,0.4756 0.05282,0.4679 0.07263,0.4757 0.09903,0.4602 0.125447,0.4603 0.145257,0.4526 0.165065,0.4526 0.19147,0.4372 0.211274,0.422 0.231083,0.4142 0.250892,0.4066 0.277298,0.3912 0.290504,0.3759 0.310312,0.3605 0.330117,0.3452 0.343325,0.3299 0.36313,0.3068 0.376334,0.2915 0.38954,0.2762 0.402745,0.2531 0.415949,0.2302 0.429155,0.2148 0.435756,0.1841 0.442359,0.1687 0.455563,0.1458 0.462167,0.1227 0.462165,0.1 0.47537,0.077 0.468769,0.054 0.475371,0.023 0.481972,0.01 0.47537,-0.023 0.468769,-0.038 0.475371,-0.069 0.468768,-0.092 0.462166,-0.115 0.455563,-0.1381 0.448962,-0.1611 0.442359,-0.1764 0.429152,-0.2072 0.415951,-0.2224 0.409347,-0.2455 0.396142,-0.2685 -13.257559,-13.2557 z m 15.495763,11.0158 0.270696,-0.3912 0.244288,-0.4066 0.224479,-0.4219 0.204674,-0.4296 0.184867,-0.4449 0.158456,-0.445 0.138648,-0.4602 0.11223,-0.4603 0.09244,-0.4679 0.06602,-0.468 0.04621,-0.4756 0.01981,-0.4756 -0.0066,-0.4756 -0.02642,-0.4756 -0.05285,-0.4756 -0.07263,-0.468 -0.09903,-0.4679 -0.125447,-0.4603 -0.145256,-0.4526 -0.165066,-0.4526 -0.191468,-0.4372 -0.211276,-0.4219 -0.231083,-0.4143 -0.25089,-0.4065 -0.2773,-0.3913 -0.290504,-0.3759 -0.310312,-0.3605 -0.330118,-0.3452 -0.343324,-0.3299 -0.363129,-0.3068 -0.376337,-0.2915 -0.389538,-0.2762 -0.402744,-0.2531 -0.415951,-0.2302 -0.429153,-0.2147 -0.435757,-0.1918 -0.448961,-0.1611 -0.448961,-0.1458 -0.462165,-0.1227 -0.468768,-0.1 -0.468769,-0.077 -0.475371,-0.054 -0.47537,-0.023 -0.475371,-0.01 -0.475371,0.023 -0.47537,0.038 -0.475371,0.069 -0.462164,0.092 -0.462167,0.1151 -0.462165,0.1381 -0.448963,0.161 -0.435756,0.1842 -0.429153,0.1994 -0.422552,0.2301 -0.409348,0.2455 -0.396142,0.2608 13.257559,13.2557 z m -20.421129,-18.1806 0,0 z m 25.353097,25.3531 0,0 z"
           id="path755"
           inkscape:connector-curvature="0"
           style="fill:#ff0000;fill-opacity:0.79497908;stroke:#ffffff;stroke-width:0.00711672;stroke-opacity:0.69800002" />
        <path
           d="m 69.670727,1018.9932 c 7.183377,0 12.676548,5.4925 12.676548,12.6727 0,7.1802 -5.493171,12.6727 -12.676548,12.6727 -7.183378,0 -12.669947,-5.4925 -12.669947,-12.6727 0,-7.1802 5.486569,-12.6727 12.669947,-12.6727 z"
           id="path757"
           inkscape:connector-curvature="0"
           style="fill:none;stroke:#ff0000;stroke-width:0.00711672" />
        <path
           d="m 61.926146,1026.158 -0.264094,0.3989 -0.244288,0.4066 -0.224479,0.4219 -0.204674,0.4296 -0.184867,0.4373 -0.158456,0.4449 -0.138648,0.4602 -0.112247,0.4603 -0.09244,0.468 -0.06602,0.4756 -0.04621,0.4679 -0.01981,0.4756 0.0066,0.4833 0.02642,0.4756 0.05282,0.4679 0.07263,0.4757 0.09903,0.4602 0.125447,0.4603 0.145257,0.4526 0.165065,0.4526 0.19147,0.4372 0.211274,0.422 0.231083,0.4142 0.250892,0.4066 0.277298,0.3912 0.290504,0.3759 0.310312,0.3605 0.330117,0.3452 0.343325,0.3299 0.36313,0.3068 0.376334,0.2915 0.38954,0.2762 0.402745,0.2531 0.415949,0.2302 0.429155,0.2148 0.435756,0.1841 0.442359,0.1687 0.455563,0.1458 0.462167,0.1227 0.462165,0.1 0.47537,0.077 0.468769,0.054 0.475371,0.023 0.481972,0.01 0.47537,-0.023 0.468769,-0.038 0.475371,-0.069 0.468768,-0.092 0.462166,-0.115 0.455563,-0.1381 0.448962,-0.1611 0.442359,-0.1764 0.429152,-0.2072 0.415951,-0.2224 0.409347,-0.2455 0.396142,-0.2685 -13.257559,-13.2557 z"
           id="path759"
           inkscape:connector-curvature="0"
           style="fill:none;stroke:#ff0000;stroke-width:0.00711672" />
        <path
           d="m 77.421909,1037.1738 0.270696,-0.3912 0.244288,-0.4066 0.224479,-0.4219 0.204674,-0.4296 0.184867,-0.4449 0.158456,-0.445 0.138648,-0.4602 0.11223,-0.4603 0.09244,-0.4679 0.06602,-0.468 0.04621,-0.4756 0.01981,-0.4756 -0.0066,-0.4756 -0.02642,-0.4756 -0.05285,-0.4756 -0.07263,-0.468 -0.09903,-0.4679 -0.125447,-0.4603 -0.145256,-0.4526 -0.165066,-0.4526 -0.191468,-0.4372 -0.211276,-0.4219 -0.231083,-0.4143 -0.25089,-0.4065 -0.2773,-0.3913 -0.290504,-0.3759 -0.310312,-0.3605 -0.330118,-0.3452 -0.343324,-0.3299 -0.363129,-0.3068 -0.376337,-0.2915 -0.389538,-0.2762 -0.402744,-0.2531 -0.415951,-0.2302 -0.429153,-0.2147 -0.435757,-0.1918 -0.448961,-0.1611 -0.448961,-0.1458 -0.462165,-0.1227 -0.468768,-0.1 -0.468769,-0.077 -0.475371,-0.054 -0.47537,-0.023 -0.475371,-0.01 -0.475371,0.023 -0.47537,0.038 -0.475371,0.069 -0.462164,0.092 -0.462167,0.1151 -0.462165,0.1381 -0.448963,0.161 -0.435756,0.1842 -0.429153,0.1994 -0.422552,0.2301 -0.409348,0.2455 -0.396142,0.2608 13.257559,13.2557 z"
           id="path761"
           inkscape:connector-curvature="0"
           style="fill:none;stroke:#ff0000;stroke-width:0.00711672" />
        <path
           d="m 57.00078,1018.9932 0,0 z"
           id="path763"
           inkscape:connector-curvature="0"
           style="fill:none;stroke:#ff0000;stroke-width:0.00711672" />
        <path
           d="m 82.353877,1044.3463 0,0 z"
           id="path765"
           inkscape:connector-curvature="0"
           style="fill:none;stroke:#ff0000;stroke-width:0.00711672" />
      </g>
      <path
         inkscape:connector-curvature="0"
         id="path5503"
         style="fill:#ffffff;stroke:#000000;stroke-width:1.12511194;stroke-linecap:round;stroke-linejoin:round"
         d="m 70.946835,1020.9665 2.689833,-3.215 -10.943057,-4.8248 8.253478,8.0398 z" />
    </g>
  </g>
</svg>
